<svg width="291" height="244" viewBox="0 0 291 244" fill="none" xmlns="http://www.w3.org/2000/svg">
<path id="Vector (Stroke)" d="M26.9023 0.000558836C27.5506 0.0113816 28.1836 0.178938 28.8555 0.446848C29.4135 0.669433 29.8903 1.07715 30.2842 1.52497C30.6809 1.97609 31.017 2.49427 31.2861 2.97614C31.5562 3.45961 31.7654 3.91806 31.9072 4.25447C31.9782 4.42285 32.0323 4.56203 32.0693 4.65974C32.0878 4.7086 32.1026 4.74708 32.1123 4.774C32.1161 4.78454 32.1187 4.7935 32.1211 4.80036L55.1719 57.1383L55.1787 57.1529C55.1851 57.1658 55.1952 57.185 55.208 57.2105C55.2338 57.2619 55.2724 57.3381 55.3223 57.4351C55.4221 57.6294 55.5677 57.9086 55.751 58.2447C56.118 58.918 56.6328 59.8181 57.2256 60.7281C57.8202 61.6409 58.484 62.5496 59.1475 63.2496C59.8312 63.971 60.436 64.3846 60.9043 64.4586C61.4958 64.552 62.4536 64.5626 63.5908 64.5181C64.7169 64.4741 65.9836 64.378 67.1748 64.2681C68.365 64.1584 69.4756 64.0361 70.2891 63.941C70.6957 63.8935 71.0286 63.8525 71.2588 63.8238C71.3734 63.8095 71.4628 63.7984 71.5234 63.7906C71.5538 63.7867 71.5773 63.7828 71.5928 63.7808C71.6005 63.7798 71.6065 63.7794 71.6104 63.7789C71.612 63.7787 71.6133 63.779 71.6143 63.7789L71.6152 63.7779H71.6211L264.017 40.5758L264.581 40.5084L264.576 41.0767C264.529 46.3707 259.811 56.4549 246.566 64.6988C243.236 66.7717 240.412 68.4044 238.021 69.8218C235.625 71.2426 233.671 72.4431 232.051 73.6627C228.85 76.0717 226.949 78.5552 225.624 82.9752C224.038 93.1045 228.751 100.896 230.763 106.575C231.619 108.993 237.003 122.159 244.255 139.939L289.745 133.721L290.686 141.089L247.199 147.17C248.81 151.122 250.49 155.24 252.209 159.469C263.216 186.548 275.938 218.133 283.946 239.397L284.201 240.074H275.033L274.894 239.803L274.893 239.8C274.892 239.799 274.89 239.797 274.889 239.794C274.885 239.787 274.88 239.777 274.873 239.764C274.86 239.738 274.84 239.699 274.813 239.648C274.761 239.546 274.682 239.393 274.578 239.193C274.371 238.792 274.065 238.199 273.668 237.432C272.875 235.897 271.72 233.664 270.275 230.869C267.386 225.278 263.336 217.439 258.693 208.45C249.46 190.574 237.882 168.146 228.424 149.791L112.582 165.981C77.302 192.829 37.0711 223.32 10.3818 243.365L10.249 243.465H0L43.4961 195.413L43.5088 195.399L43.5225 195.385L74.5674 165.967L74.5693 165.965C74.5818 165.95 74.6016 165.924 74.627 165.89C74.6779 165.822 74.7526 165.717 74.8398 165.58C75.0146 165.305 75.2404 164.901 75.4385 164.394C75.8344 163.381 76.1159 161.966 75.6758 160.331C75.2115 158.606 74.8223 157.84 74.4131 157.195C73.996 156.537 73.4855 155.906 72.8574 154.58C72.7672 154.389 72.4917 153.642 72.0713 152.465C71.6439 151.269 71.0533 149.59 70.3232 147.501C68.8631 143.32 66.8442 137.49 64.4561 130.567C59.6795 116.721 53.4249 98.5007 47.209 80.3619C40.9931 62.2229 34.8161 44.1638 30.1924 30.6402C27.8805 23.8785 25.9567 18.2507 24.6113 14.3131C23.9386 12.3442 23.4098 10.7977 23.0498 9.74372C22.8698 9.21689 22.7326 8.81274 22.6396 8.5406C22.5932 8.40453 22.5578 8.30113 22.5342 8.232C22.5224 8.19757 22.5137 8.17125 22.5078 8.15388C22.5049 8.14529 22.5025 8.13868 22.501 8.13435C22.5003 8.13226 22.4994 8.13053 22.499 8.12947L22.9717 7.96638L22.498 8.12849L22.4912 8.10896L22.4863 8.08845L22.4854 8.08454C22.4849 8.08268 22.4842 8.07981 22.4834 8.07673C22.4818 8.0701 22.4794 8.06029 22.4766 8.04841C22.4708 8.0242 22.4631 7.98914 22.4531 7.94489C22.4331 7.85592 22.4053 7.7285 22.375 7.57087C22.3145 7.25569 22.242 6.81681 22.1934 6.3238C22.0989 5.36544 22.0835 4.09534 22.5166 3.14607C22.7867 2.55432 23.0626 2.02971 23.4385 1.57966C23.8212 1.12143 24.2921 0.758191 24.9297 0.458567C25.611 0.138442 26.2484 -0.0103545 26.9023 0.000558836ZM26.8857 0.999582C26.4075 0.991601 25.9209 1.09818 25.3555 1.36384C24.8382 1.60689 24.4875 1.88429 24.2061 2.22126C23.9178 2.56638 23.6864 2.99214 23.4268 3.56111C23.1121 4.25065 23.096 5.28686 23.1885 6.22517C23.2334 6.68051 23.3011 7.08874 23.3574 7.38239C23.3855 7.52872 23.4108 7.64621 23.4287 7.72614C23.4377 7.76603 23.4444 7.79686 23.4492 7.81697C23.4505 7.82076 23.4522 7.82605 23.4541 7.83161L23.5859 8.21736C23.6789 8.48954 23.8171 8.89352 23.9971 9.42048C24.3571 10.4745 24.8849 12.021 25.5576 13.9898C26.903 17.9274 28.8259 23.5554 31.1377 30.317C35.7614 43.8405 41.9395 61.899 48.1553 80.0377C54.3711 98.1764 60.6252 116.396 65.4014 130.241C67.7895 137.163 69.808 142.992 71.2676 147.17C71.9973 149.26 72.5875 150.935 73.0137 152.128C73.4466 153.341 73.6981 154.02 73.7607 154.152C74.3537 155.404 74.7931 155.926 75.2578 156.659C75.7305 157.404 76.1561 158.267 76.6416 160.07C77.1511 161.962 76.8222 163.601 76.3701 164.758C76.1443 165.336 75.8861 165.797 75.6836 166.116C75.5822 166.275 75.4938 166.401 75.4297 166.487C75.398 166.53 75.3722 166.563 75.3535 166.587C75.3441 166.598 75.3357 166.608 75.3301 166.615C75.3273 166.618 75.325 166.621 75.3232 166.624C75.3224 166.625 75.3219 166.626 75.3213 166.627L75.3203 166.628L75.3018 166.65L75.2812 166.669L44.2275 196.094L2.25488 242.465H9.91504C36.6288 222.401 76.8362 191.929 112.082 165.106L123.344 156.532C155.04 132.385 180.658 112.757 185.202 109.068C190.989 104.371 194.74 102.636 197.39 102.278C200.086 101.913 201.59 102.993 202.711 103.586C203.357 103.928 204.122 104.576 204.917 105.379C205.721 106.192 206.585 107.196 207.434 108.284C209.127 110.456 210.778 112.999 211.749 115.079C212.302 116.264 218.064 127.493 225.937 142.78C226.974 144.794 228.048 146.878 229.15 149.018C238.638 167.431 250.296 190.013 259.582 207.991C264.225 216.98 268.275 224.818 271.164 230.409C272.609 233.204 273.763 235.438 274.557 236.973C274.953 237.741 275.26 238.333 275.467 238.734C275.537 238.869 275.596 238.983 275.643 239.074H282.755C274.739 217.835 262.174 186.641 251.283 159.846C240.282 132.782 230.979 110.179 229.82 106.909C227.888 101.452 222.988 93.2613 224.642 82.7847L224.647 82.7515L224.656 82.7193C226.045 78.0678 228.077 75.4016 231.449 72.8638C233.119 71.6073 235.117 70.3815 237.512 68.9615C239.912 67.5381 242.72 65.9145 246.038 63.8492C258.609 56.0241 263.182 46.6463 263.55 41.6392L71.7451 64.7691L71.7441 64.7701C71.7431 64.7702 71.7412 64.7708 71.7393 64.7711C71.7352 64.7716 71.7293 64.772 71.7217 64.773C71.7058 64.7751 71.682 64.7779 71.6514 64.7818C71.5896 64.7897 71.4981 64.8015 71.3818 64.816C71.1494 64.845 70.8146 64.8863 70.4053 64.9342C69.5865 65.0299 68.4673 65.1535 67.2666 65.2642C66.0666 65.3749 64.7806 65.4731 63.6299 65.5181C62.4902 65.5627 61.4455 65.556 60.748 65.4459C59.9275 65.3161 59.1244 64.6783 58.4219 63.9371C57.699 63.1744 56.9971 62.2096 56.3877 61.274C55.7763 60.3354 55.248 59.411 54.873 58.7232C54.6855 58.3793 54.5357 58.0936 54.4326 57.8931C54.3812 57.7931 54.3416 57.7139 54.3145 57.6597C54.3009 57.6328 54.2903 57.6115 54.2832 57.5972C54.2797 57.5902 54.2772 57.5844 54.2754 57.5806C54.2745 57.5789 54.273 57.5777 54.2725 57.5767V57.5748L54.2676 57.565L54.2637 57.5562L31.1973 5.18318L31.1895 5.16462L31.1826 5.14509C31.1822 5.14401 31.1816 5.14088 31.1807 5.13825C31.1788 5.13305 31.1759 5.12486 31.1719 5.11384C31.1638 5.09149 31.1514 5.05709 31.1348 5.01325C31.1015 4.92554 31.051 4.79798 30.9854 4.64216C30.8536 4.32959 30.6602 3.90699 30.4131 3.46443C30.1648 3.01996 29.8678 2.56566 29.5332 2.18513C29.196 1.80167 28.8424 1.51805 28.4854 1.37556C27.8776 1.13319 27.3696 1.00767 26.8857 0.999582ZM123.844 157.407L114.208 164.745L227.938 148.848C227.006 147.038 226.094 145.271 225.209 143.552L123.844 157.407ZM202.243 104.47C201.058 103.843 199.847 102.955 197.523 103.269C195.153 103.59 191.578 105.18 185.832 109.844C181.344 113.488 156.446 132.566 125.458 156.176L224.724 142.609C217.027 127.661 211.399 116.694 210.843 115.502C209.914 113.511 208.31 111.033 206.646 108.898C205.815 107.832 204.975 106.86 204.206 106.083C203.428 105.296 202.75 104.739 202.243 104.47ZM230.152 51.6304C230.783 51.6477 231.454 51.7004 232.004 51.8258C232.278 51.8882 232.547 51.9743 232.772 52.0982C232.994 52.2198 233.228 52.4089 233.338 52.7017C233.68 53.6144 233.61 54.6195 233.358 55.5699C233.105 56.5241 232.656 57.4695 232.181 58.2965C231.704 59.1258 231.192 59.8524 230.8 60.3707C230.603 60.6301 230.436 60.8387 230.317 60.983C230.258 61.055 230.211 61.1114 230.178 61.15C230.161 61.1693 230.149 61.1846 230.14 61.1949C230.135 61.2 230.131 61.2038 230.129 61.2066C230.128 61.208 230.127 61.2097 230.126 61.2105L230.125 61.2115L230.082 61.2603L106.04 144.859C106.029 144.869 106.015 144.882 105.997 144.897C105.952 144.935 105.886 144.991 105.802 145.061C105.633 145.201 105.388 145.399 105.08 145.634C104.465 146.105 103.597 146.727 102.585 147.333C100.588 148.527 97.9177 149.728 95.501 149.435C94.6016 149.326 93.8143 148.749 93.1631 148.049C92.5038 147.342 91.9266 146.448 91.4541 145.587C90.9799 144.724 90.6005 143.874 90.3398 143.242C90.2093 142.925 90.1079 142.661 90.0391 142.476C90.0046 142.384 89.9779 142.311 89.96 142.26C89.9511 142.235 89.9441 142.216 89.9395 142.203L66.4727 87.6734C66.4715 87.6709 66.4702 87.6669 66.4688 87.6636C66.4628 87.6504 66.4534 87.6308 66.4424 87.606C66.4205 87.5565 66.3896 87.4843 66.3506 87.3922C66.2724 87.2075 66.1631 86.9413 66.0391 86.6129C65.7914 85.957 65.4812 85.0469 65.2334 84.0328C64.9861 83.0207 64.7974 81.8889 64.8008 80.7955C64.8042 79.7061 64.9983 78.613 65.5576 77.7134C66.0362 76.9438 66.7762 76.3264 67.5781 75.8336C68.3836 75.3385 69.2811 74.9511 70.1113 74.6558C70.9433 74.36 71.7198 74.1523 72.2871 74.0181C72.5711 73.951 72.8041 73.9019 72.9668 73.8697C73.048 73.8536 73.1122 73.8416 73.1562 73.8336C73.1781 73.8296 73.1952 73.8268 73.207 73.8248C73.2129 73.8237 73.2175 73.8224 73.2207 73.8218H73.2256L73.2383 73.8189L227.643 51.7037L227.657 51.7017L227.671 51.7008L227.676 51.6998C227.678 51.6996 227.682 51.6992 227.687 51.6988C227.696 51.698 227.71 51.6973 227.729 51.6959C227.765 51.693 227.818 51.6888 227.885 51.6842C228.018 51.6749 228.209 51.6627 228.438 51.6519C228.897 51.6304 229.517 51.613 230.152 51.6304ZM230.125 52.6304C229.523 52.614 228.93 52.6301 228.485 52.6509C228.264 52.6613 228.081 52.6734 227.953 52.6822C227.889 52.6866 227.839 52.6903 227.806 52.6929C227.789 52.6942 227.777 52.6952 227.769 52.6959C227.764 52.6962 227.761 52.6967 227.759 52.6968L73.3906 74.8072L73.3896 74.8082C73.3875 74.8085 73.3837 74.8093 73.3789 74.8101C73.3693 74.8118 73.3544 74.8144 73.335 74.8179C73.2957 74.8251 73.237 74.8361 73.1611 74.8511C73.0089 74.8813 72.7874 74.9277 72.5166 74.9918C71.9743 75.12 71.2354 75.318 70.4473 75.5982C69.657 75.8792 68.8281 76.2386 68.1016 76.6851C67.3714 77.1338 66.7732 77.6532 66.4072 78.2418C65.9825 78.9248 65.8039 79.8104 65.8008 80.7984C65.7977 81.7824 65.969 82.828 66.2051 83.7945C66.4407 84.7588 66.7367 85.6301 66.9746 86.2603C67.0934 86.5748 67.1978 86.8285 67.2715 87.0025C67.3082 87.0893 67.3376 87.156 67.3574 87.2008C67.3673 87.2231 67.3749 87.2406 67.3799 87.2515C67.3823 87.2568 67.3837 87.2608 67.3848 87.2633C67.3853 87.2645 67.3855 87.2657 67.3857 87.2662L67.3916 87.2779L90.8643 141.822L90.8721 141.839L90.8779 141.857C90.8781 141.858 90.8785 141.86 90.8789 141.861C90.8798 141.864 90.8819 141.867 90.8838 141.873C90.8878 141.884 90.8941 141.902 90.9023 141.925C90.9188 141.971 90.943 142.04 90.9756 142.128C91.041 142.303 91.1381 142.555 91.2637 142.86C91.5154 143.47 91.8799 144.284 92.3311 145.106C92.784 145.931 93.3146 146.745 93.8945 147.368C94.4826 147.999 95.0667 148.375 95.6211 148.442C97.6818 148.692 100.099 147.654 102.071 146.474C103.043 145.893 103.879 145.294 104.473 144.84C104.769 144.614 105.004 144.423 105.164 144.291C105.244 144.224 105.306 144.172 105.347 144.137C105.367 144.12 105.383 144.107 105.393 144.098C105.398 144.094 105.401 144.09 105.403 144.088L105.406 144.087L105.431 144.065L105.457 144.046L229.413 60.5045C229.414 60.5036 229.415 60.5034 229.416 60.5025C229.445 60.4679 229.489 60.4158 229.545 60.3482C229.656 60.2129 229.815 60.0147 230.002 59.7672C230.377 59.2712 230.864 58.5807 231.313 57.7984C231.765 57.0134 232.169 56.1517 232.392 55.3131C232.615 54.4707 232.643 53.6967 232.401 53.0523C232.41 53.074 232.406 53.0381 232.29 52.9742C232.178 52.9127 232.009 52.8523 231.781 52.8004C231.327 52.6968 230.733 52.6471 230.125 52.6304ZM244.645 140.895C245.351 142.628 246.072 144.403 246.811 146.214L289.567 140.235L288.881 134.848L244.645 140.895Z" fill="white"/>
</svg>
